<?xml version="1.0" encoding="utf-8"?>
<!-- Generator: Adobe Illustrator 24.0.0, SVG Export Plug-In . SVG Version: 6.00 Build 0)  -->
<svg version="1.1" id="Layer_1" xmlns="http://www.w3.org/2000/svg" xmlns:xlink="http://www.w3.org/1999/xlink" x="0px" y="0px"
	 width="150px" height="150px" viewBox="0 0 150 150" style="enable-background:new 0 0 150 150;" xml:space="preserve">
<style type="text/css">
	.st0{fill:#E8AF49;}
</style>
<path class="st0" d="M91.5,50.9c5.6-1.6,10.5-0.8,15,2.4c3.5,2.6,5.6,6,6.4,10.3c1.7,9-3.7,16.5-14.1,19.4c0,0.7-0.1,1.6-0.1,2.4
	c0,7,0,13.9,0,20.9c0,0.5,0,1.1,0,1.6c-0.1,1.8-0.6,2.4-2.4,2.5c-0.4,0-0.8,0-1.2,0c-13.4,0-26.7,0-40.1,0c-0.5,0-0.9,0-1.4,0
	c-1.4-0.2-2.1-0.8-2.2-2.2c-0.1-0.6,0-1.2,0-1.9c0-7,0-14.1,0-21.1c0-0.7,0-1.4,0-2.2c-5.8-1.2-10.2-4.1-12.8-9.4
	c-1.8-3.7-2.2-7.6-1-11.6c1.3-4.4,4-7.7,8-10c3.6-2,6.6-2.2,12.9-1.3c1.8-9.3,7.2-14.8,17-15.1c4.1-0.1,7.8,1.6,10.8,4.5
	C89.3,43,90.9,46.5,91.5,50.9z M69.2,96.7c3.2,0.5,9.9,0.3,11.7-0.2c0-4.1,0-8.2,0-12.4c0-0.7,0-1.4,0.1-2.1c0.1-1,0.8-1.5,1.7-1.6
	c1-0.1,1.7,0.4,2,1.3c0.2,0.6,0.2,1.2,0.2,1.8c0,3.6,0,7.2,0,10.8c0,0.8,0.1,1.5,0.1,2.4c3.2,0,6.3,0,9.6,0c0.1-0.9,0.1-1.7,0.1-2.6
	c0-3.8,0-7.5,0-11.3c0-0.5,0-0.9,0-1.4c0.1-1.8,0.5-2.2,2.2-2.4c0.8-0.1,1.6-0.2,2.3-0.4c6.8-1.4,11.2-8.3,9.5-15.1
	c-1.7-6.9-8.8-11-15.6-9c-1.3,0.4-2.2,1-2.5,2.4c-0.3,1.1-0.8,2.2-1.4,3.2c-0.6,0.9-1.6,1.1-2.5,0.6c-0.9-0.5-1.2-1.4-0.9-2.4
	c0.2-0.5,0.4-1,0.7-1.5c2.7-6.6-0.5-13.8-7.1-16.4c-6.4-2.5-13.6,0.8-16.1,7.3c-1.3,3.4-1,6.7,0.5,10c0.7,1.5,0.4,2.4-0.6,3
	c-1.2,0.6-2.3,0.1-3-1.4c-0.4-0.8-0.8-1.7-1-2.6c-0.2-1.2-1-1.7-2-2c-7.7-2.7-16.2,3.2-16.4,11.4c-0.1,6,4.1,12.1,11.7,12.9
	c2.5,0.2,2.7,0.6,2.7,3.1c0,4.1,0,8.3,0,12.4c0,0.7,0.1,1.5,0.2,2.2c3.4,0,6.5,0,9.7,0c0-0.9,0.1-1.7,0.1-2.4c0-3.5,0-7,0-10.6
	c0-0.6,0-1.3,0.1-1.9c0.1-1,0.9-1.5,1.8-1.5c1,0,1.7,0.4,1.9,1.4c0.1,0.5,0.1,1.1,0.1,1.6c0,3.6,0,7.2,0,10.8
	C69.2,95,69.2,95.8,69.2,96.7z M55.4,106.1c2.5,0.5,37.4,0.4,39.1-0.1c0.3-2.4,0.3-3.3-0.2-5.1c-12.9,0-25.8,0-39,0
	c0,1.2,0,2.2,0,3.2C55.3,104.8,55.4,105.5,55.4,106.1z"/>
</svg>
