<?xml version="1.0" encoding="utf-8"?>
<!-- Generator: Adobe Illustrator 24.0.0, SVG Export Plug-In . SVG Version: 6.00 Build 0)  -->
<svg version="1.1" id="Layer_1" xmlns="http://www.w3.org/2000/svg" xmlns:xlink="http://www.w3.org/1999/xlink" x="0px" y="0px"
	 width="150px" height="150px" viewBox="0 0 150 150" style="enable-background:new 0 0 150 150;" xml:space="preserve">
<style type="text/css">
	.st0{fill:#E8AF49;}
</style>
<g>
	<path class="st0" d="M45.5,91.1c-0.6,0-1.1-0.1-1.6-0.1c-2.7-0.2-4.5-2-4.6-4.7c-0.1-1.3-0.1-2.6,0-3.9c0.1-2.7,1.9-4.5,4.6-4.7
		c0.5,0,1-0.1,1.8-0.1c0-0.9,0-1.7,0-2.6c0.1-1.5,0.6-2,2-2.1c0.5,0,0.9,0,1.4,0c11.5,0,23,0,34.5,0c0.6,0,1.2-0.1,1.9-0.1
		c-0.2-2.6,0.3-4.9,2.4-6.5c1.3-1.1,2.9-1.5,4.6-1.4c3.8,0.2,6,3,6.3,7.9c0.3,0.1,0.6,0.1,0.9,0.2c1.5,0.4,1.8,0.7,1.9,2.2
		c0,0.8,0,1.5,0,2.4c0.7,0.1,1.2,0.2,1.7,0.1c2.7-0.1,4.8,2.1,4.9,4.8c0,1.1,0.1,2.2,0,3.3c-0.1,3.2-2,5.1-5.2,5.2
		c-0.4,0-0.8,0.1-1.4,0.1c0,0.7-0.1,1.4-0.1,2.1c-0.1,2.3,0,4.7-0.4,7c-0.9,5.2-5.5,9.4-10.7,10.1c-1,0.1-2.1,0.2-3.1,0.2
		c-9.1,0-18.3,0-27.4,0c-1.6,0-3.3-0.1-4.8-0.6c-5.6-1.6-9.3-6.5-9.4-12.3c0-1.6,0-3.1,0-4.7C45.7,92.3,45.6,91.7,45.5,91.1z
		 M98.1,76.3c-3.2-0.4-47.5-0.2-49,0.1c0,0.5-0.1,1.1-0.1,1.7c0,6.3,0.1,12.5,0,18.8c-0.1,5.2,3.9,10.3,10.2,10.2
		c9.6-0.1,19.2-0.1,28.8,0c5.6,0,10.4-4.3,10.2-10.3c-0.1-6.3,0-12.5,0-18.8C98.2,77.6,98.1,77,98.1,76.3z M91.9,72.8
		c0.6,0,1.3,0,1.9,0c1.1-0.1,1.5-0.4,1.5-1.5c-0.1-1.6-1.5-3.1-3.1-3.2c-1.7-0.1-3.3,1.3-3.5,3c-0.1,1.2,0.3,1.7,1.5,1.7
		C90.8,72.8,91.3,72.8,91.9,72.8z M101.9,80.9c-0.5,1.4-0.6,4.7-0.1,6.5c2.1,0.4,2.8,0.1,3-1.3c0.1-1.2,0.1-2.5,0-3.7
		c-0.1-1-0.6-1.4-1.7-1.5C102.7,80.9,102.3,80.9,101.9,80.9z M45.6,81.1c-2.5-0.3-2.8,0-2.9,2.2c0,0.6,0,1.3,0,1.9
		c0,2.2,0.6,2.7,2.9,2.1C45.6,85.3,45.6,83.2,45.6,81.1z"/>
	<path class="st0" d="M104.5,54.7c-3.5,8.8-14.2,10.9-20.5,3c-3.2,1-6.4,2.1-9.6,3.2c-8.5,2.9-17.1,5.8-25.6,8.6
		c-0.4,0.1-0.9,0.3-1.3,0.4c-0.8,0.1-1.4-0.3-1.7-1.1c-0.3-0.8,0-1.4,0.7-1.9c0.4-0.3,0.9-0.4,1.4-0.6c4-1.4,8-2.7,12-4.1
		c0.4-0.1,0.8-0.3,1.4-0.6c-0.1-0.6-0.2-1.1-0.4-1.7c-0.7-3.1,0.7-5.6,3.7-6.6c2.2-0.8,4.5-1.5,6.7-2.1c3.4-1,5.9,0.3,7.2,3.6
		c0.1,0.3,0.3,0.6,0.5,1c1.2-0.4,2.4-0.8,3.5-1.2c-0.1-1-0.2-1.8-0.2-2.6c-0.3-6.1,4-11.3,9.8-11.9c6.4-0.6,11.7,3.5,12.5,9.7
		c0.1,0.4,0.1,0.8,0.2,1.3c0.5,0.1,1.1,0.3,1.6,0.5c4.5,1.3,7.1,5.8,5.9,10.2c-1.2,4.4-5.6,7-10.1,6c-0.7-0.2-1.4-0.4-2-0.8
		c-0.8-0.5-0.9-1.3-0.6-2.1c0.4-0.8,1-1,1.8-0.8c0.4,0.1,0.7,0.3,1.1,0.4c3,0.9,5.9-0.8,6.6-3.8C110,57.7,107.9,55.1,104.5,54.7z
		 M93.5,43.3c-4.3,0.1-8,3.8-7.9,8.1c0.1,4.4,3.8,8,8.1,7.9c4.3-0.1,7.9-3.8,7.9-8.1C101.5,46.9,97.8,43.2,93.5,43.3z M75.7,56.9
		c-0.8-2.7-1.5-3.1-3.9-2.4c-1.8,0.6-3.6,1.1-5.4,1.7C64,57,63.6,58.2,65,60.5C68.5,59.3,72.1,58.1,75.7,56.9z"/>
</g>
</svg>
