<?xml version="1.0" encoding="utf-8"?>
<!-- Generator: Adobe Illustrator 24.0.0, SVG Export Plug-In . SVG Version: 6.00 Build 0)  -->
<svg version="1.1" id="Layer_1" xmlns="http://www.w3.org/2000/svg" xmlns:xlink="http://www.w3.org/1999/xlink" x="0px" y="0px"
	 width="150px" height="150px" viewBox="0 0 150 150" style="enable-background:new 0 0 150 150;" xml:space="preserve">
<style type="text/css">
	.st0{fill:#E8AF49;}
</style>
<path class="st0" d="M37.1,76.6c-0.5-2.8-1.1-5.4-1.4-8.1c-0.3-2.6-0.3-5.2-0.3-7.8c0-1.9,0.7-2.6,2.6-2.6c3.4,0.1,6.8,0.4,10.2,0.6
	c0.8,0.1,1.5,0.2,2.4,0.4c0.3-0.5,0.5-0.9,0.7-1.4c2.3-6.5,6.3-11.8,11.3-16.5c1.7-1.6,2.5-1.6,4.2,0c4.5,4.2,8.2,9,10.6,14.7
	c0.2,0.4,0.4,0.9,0.6,1.3c0.1,0.1,0.2,0.2,0.5,0.4c0.6-0.5,1.3-1.1,2-1.6c1.5-1,3.1-1.9,4.7-2.8c0.8-0.4,1.4-0.8,1.9-1.6
	c0.4-0.6,1.3-1.1,2.1-1.3c3-0.8,6.1-0.7,9.2-0.3c0.5,0.1,1.1,0.2,1.8,0.3c0.4-0.6,0.7-1.2,1.1-1.8c0.4-0.6,0.9-1.1,1.4-1.6
	c0.9-0.7,2.1-0.6,2.8,0.2c0.7,0.9,0.7,1.7,0,2.6c-0.4,0.5-0.8,1-1.3,1.6c0.6,0.4,1,0.7,1.5,0.9c3.1,1.5,5.8,3.5,8.1,6.1
	c0.8,1,1.6,2,0.8,3.4c-0.2,0.3-0.1,1,0.1,1.3c2.2,4,3,8.3,2.8,12.8c0,0.1,0.1,0.3,0.2,0.4c0.1,0.1,0.1,0.1,0.2,0.1
	c3.2,0.6,3.7,1.3,2.8,4.3c-3,10.1-8.1,19-15.9,26.2c-0.2,0.2-0.5,0.4-0.7,0.6c-2,2.1-4.4,2.9-7.4,2.9c-13.6-0.1-27.2-0.1-40.8,0
	c-2,0-3.6-0.5-5.2-1.8c-6.8-5.6-11.7-12.6-15.1-20.6c-1.1-2.7-2.1-5.5-2.9-8.3c-0.6-2,0.2-2.9,2.3-3.1
	C35.5,76.6,36.3,76.6,37.1,76.6z M37.3,80.9c0,0.5-0.1,0.7-0.1,0.8c0.3,0.8,0.5,1.6,0.9,2.5C41.2,92,45.6,99,52,104.7
	c1.3,1.2,2.6,1.7,4.5,1.7c13.2-0.1,26.4-0.1,39.6,0c2.3,0,4-0.7,5.7-2.3c6.6-6.1,11-13.6,14-22c0.1-0.4,0.1-0.8,0.2-1.4
	C89.6,80.9,63.5,80.9,37.3,80.9z M77.3,76.4c4.1,0.5,34.1,0.3,35.7-0.2c0.9-5.2-1.1-11.8-4.1-12.7c0,1.2,0,2.4,0,3.5
	c0,1.1,0,2.1-1.1,2.6c-1.1,0.5-2-0.1-2.8-0.7c-1.6-1.3-3.3-2.5-4.8-3.9c-1.2-1.1-2.5-1.5-4.1-1.4c-2.2,0.1-4.4,0.1-6.6,0.2
	c-0.9,0-1.8-0.2-2.2-1.1c-0.4-0.9-0.1-1.7,0.5-2.4c0.8-1,1.5-1.9,2.2-2.8c-0.5-1.4-1.3-1.3-2.2-1c-2.8,1-5.2,2.7-7.2,4.8
	c-0.9,0.9-1.3,1.9-1.2,3.2c0.3,3.6-0.3,7.1-1.6,10.4C77.6,75.4,77.5,75.9,77.3,76.4z M54.8,60.1c0.3,0.2,0.4,0.4,0.5,0.4
	c7.3,2.7,12.4,7.6,15.3,14.9c0.2,0.5,0.8,1,1.3,1.2c0.9,0.2,1.2-0.6,1.4-1.3c2.6-5.6,3-11.2,0.7-17c-1.9-4.9-4.9-9-8.5-12.7
	c-0.3-0.3-0.6-0.4-0.9-0.6C60.4,48.5,55.8,55.6,54.8,60.1z M66.5,76.5c-0.1-0.5-0.2-0.9-0.3-1.2C64.8,72.5,63,70,60.6,68
	c-4.8-3.8-10.4-5.2-16.2-5.8c-1.6-0.2-3.3-0.4-5,0c0.1,5,0.5,9.7,2.4,14.2C50,76.5,58.1,76.5,66.5,76.5z M93.9,59.7
	c1,0,1.8,0.1,2.6,0c2.2-0.3,4,0.2,5.6,1.8c0.6,0.6,1.4,1.1,2.6,1.9c-0.5-3.4,1.9-3.4,3.8-4.1c-1.6-1.8-3.5-2.7-5.4-3.5
	c-1.4,1.5-1.9,1.8-2.8,1.6c-1.6-0.4-1.3-1.9-1.7-3.1c-1.8-0.2-3.6-0.9-5.5-0.2C95,57.1,95,57.1,93.9,59.7z"/>
</svg>
