<?xml version="1.0" encoding="utf-8"?>
<!-- Generator: Adobe Illustrator 24.0.0, SVG Export Plug-In . SVG Version: 6.00 Build 0)  -->
<svg version="1.1" id="Layer_1" xmlns="http://www.w3.org/2000/svg" xmlns:xlink="http://www.w3.org/1999/xlink" x="0px" y="0px"
	 width="150px" height="150px" viewBox="0 0 150 150" style="enable-background:new 0 0 150 150;" xml:space="preserve">
<style type="text/css">
	.st0{fill:#E8AF49;}
</style>
<g>
	<path class="st0" d="M79.5,110.5c-8.3,0.2-15.9-1-23.2-4c-3-1.2-5.9-2.8-8.3-5c-2.8-2.5-4.4-5.6-4.2-9.5c0.1-2.3,0.1-4.6,0-6.9
		c-0.1-2.8,1.4-4.4,3.8-5.4c2.6-1,5.4-1.4,8.1-1c5.9,0.9,11.4-0.3,17-2c5.4-1.6,10.8-3,16.5-3.2c4.7-0.1,9.3,0.2,13.8,1.9
		c2.3,0.8,4.3,2.1,5.9,3.9c1.5,1.6,2.2,3.5,2.3,5.7c0,2.8,0,5.6,0,8.4c0,4.8-2.1,8.4-5.9,11.2c-3.4,2.5-7.3,3.7-11.3,4.6
		C89,110.1,84.1,110.5,79.5,110.5z M68.4,81.8c-2.4,0.4-4.8,0.8-7.3,1.2c-0.3,1.3-0.7,2.5-1,3.7c-0.3,1.3-1,1.8-2.1,1.7
		c-1.1-0.1-1.7-1-1.5-2.4c0.2-1.1,0.4-2.2,0.6-3.3c-1.7-0.5-4-0.5-5.9-0.2c-0.7,0.1-1.4,0.3-2.1,0.5c-1.7,0.6-2,1.3-1.4,3
		c0.3,0.9,0.8,1.7,1.3,2.5c1.4,1.9,3.3,3.2,5.3,4.3c6.2,3.3,12.9,4.9,19.9,5.1c5,0.2,9.9-0.1,14.9-0.4c3.7-0.3,7.4-1.1,10.9-2.5
		c2.1-0.9,4-2,5.5-3.7c3.3-3.9,2.3-9.1-2.1-11.5c-0.6-0.3-1.3-0.7-2-0.9c-2.7-0.6-5.5-1.3-8.2-1.6c-7-0.6-13.7,1.1-20.3,3.2
		c-0.2,0.1-0.4,0.3-0.9,0.7c0.9,2.8,1.9,5.6,2.8,8.3c0.2,0.5,0.5,1.1,0.6,1.6c0.2,0.9-0.2,1.6-1,2c-0.8,0.3-1.6,0.3-2.1-0.5
		c-0.3-0.4-0.6-1-0.8-1.5C70.5,88,69.5,85.1,68.4,81.8z M47.6,92.7c-0.3,2,0.5,3.7,1.8,5c1.5,1.4,3.1,2.8,4.9,3.8
		c5.5,3.1,11.6,4.5,17.9,5.1c5.8,0.6,11.6,0.3,17.4-0.5c3.8-0.5,7.5-1.4,10.9-3.1c2.2-1.1,4.2-2.5,5.5-4.7c0.6-0.9,1.1-1.9,1-3.4
		c-3.6,2.8-7.5,4.3-11.7,5.2c-8.3,1.7-16.7,2.1-25.1,1.1c-5.9-0.7-11.6-2.2-16.9-5C51.4,95.2,49.6,93.9,47.6,92.7z"/>
	<path class="st0" d="M52.4,74.1c-1.3,0-2-1.3-1.5-2.7c0.4-1.4,1-2.7,1.1-4.1c0.3-3-0.8-5.5-2.8-7.6c-2.4-2.4-3.7-5.3-3.9-8.7
		c-0.2-3.8,0.9-7.1,3.5-9.9c0.3-0.4,0.8-0.7,1.2-0.9c0.7-0.3,1.5-0.1,1.9,0.5c0.3,0.5,0.4,1.2,0.3,1.8c-0.1,0.4-0.6,0.8-0.9,1.2
		C48,48,48.1,53.1,51.9,57c4,4.2,5,10.2,2.7,15.2C53.9,73.6,53.3,74.1,52.4,74.1z"/>
	<path class="st0" d="M62.6,56.7c-0.1-2.8,0.8-5.3,2.3-7.7c0.4-0.6,1-1.3,1.5-1.8c0.9-0.8,1.8-0.8,2.5-0.1s0.8,1.6,0.1,2.5
		c-0.2,0.2-0.4,0.4-0.6,0.7c-3.3,4.2-3.1,9.3,0.4,13.4c1.1,1.2,1.9,2.7,2.8,4c0.3,0.4,0.4,0.9,0.5,1.4c0.2,1-0.3,2-1.1,2.3
		c-0.8,0.3-1.8,0-2.2-0.9c-0.7-2.1-2.2-3.6-3.6-5.3C63.5,62.8,62.5,59.9,62.6,56.7z"/>
	<path class="st0" d="M88.6,59.6c0,3.2-1.2,6-3.3,8.5c-0.2,0.3-0.5,0.5-0.8,0.7c-0.7,0.5-1.5,0.6-2.2,0c-0.7-0.5-0.9-1.5-0.5-2.3
		c0.2-0.3,0.4-0.6,0.7-0.8C84,64,84.8,62.1,85,60c0-0.6,0.1-1.2,0.1-1.7c0.2-1,0.8-1.7,1.6-1.7c0.9,0,1.7,0.7,1.8,1.7
		C88.7,58.7,88.6,59.2,88.6,59.6z"/>
	<path class="st0" d="M92,93.2c-2.7,0-4.9-0.6-6.8-2.1c-2.8-2.3-2.9-5.7-0.4-8.3c3.4-3.4,10.5-3.3,13.8,0.2c2.3,2.4,2.1,6-0.6,8.1
		C96.2,92.6,94,93.2,92,93.2z M91.8,89.7c1.3-0.4,2.6-0.7,3.8-1.4c1.4-0.8,1.3-2.2,0.1-3.2c-1.9-1.6-6-1.6-7.9,0
		c-1.3,1.1-1.3,2.2,0.1,3.2C89,89.2,90.3,89.5,91.8,89.7z"/>
</g>
</svg>
