<?xml version="1.0" encoding="utf-8"?>
<!-- Generator: Adobe Illustrator 24.0.0, SVG Export Plug-In . SVG Version: 6.00 Build 0)  -->
<svg version="1.1" id="Layer_1" xmlns="http://www.w3.org/2000/svg" xmlns:xlink="http://www.w3.org/1999/xlink" x="0px" y="0px"
	 width="160px" height="80px" viewBox="0 0 160 80" style="enable-background:new 0 0 160 80;" xml:space="preserve">
<style type="text/css">
	.st0{fill:none;stroke:#FFFFFF;stroke-miterlimit:10;}
</style>
<path class="st0" d="M12.8,8.7c0.2-1.9,0.5-3.8,0.7-5.6c12.8,4.7,26.2,9.4,39.8,8.6c-2.5,5.1-3.6,10.7-4.6,16.3
	c-1.9,10.7-3.9,21.4-5.8,32.1c-0.5,2.8-1.1,5.7-3,7.8c-1.7,1.9-4.2,2.8-6.7,3.5c-6.9,1.9-14.4,2-21.4,0.3c-2.7-0.6-5.4-1.6-7.6-3.3
	s-3.5-4.5-2.9-7.2C1.7,59.4,2.8,58,4,56.7c5.4-5.6,13.3-8.5,21.2-9.5s15.9-0.4,23.9-0.1c8,0.4,16.1,0.5,23.7-1.6"/>
<path class="st0" d="M88.8,40.4c-3.4-1.7-7.1-2.9-10.9-3.4c-2.8-0.4-6.1-0.2-7.5,2.1c-1,1.6-0.6,3.8,0.6,5.3c1.2,1.5,3,2.4,4.9,3
	c8.3,2.4,17-1.8,23.5-7.2c-14.5,6-22.3,22.1-36.8,28.1c-1.8,0.8-4.3,1.2-5.6-0.3c-0.7-0.8-0.8-2-0.8-3.1c-0.1-2.5-0.1-5.3,1.8-7
	c1-1,2.5-1.5,3.9-1.9c10.5-3.3,21.4-5.8,32.4-7.3c4.5-0.6,9.8-1.7,11.3-5.8c-2.3,1.1-3.9,3.4-4.1,5.8c5.4,0.7,11-0.6,15.4-3.7
	c-1.4,0.8-2.3,2.5-2.1,4.1c0,0.3,0.1,0.6,0.4,0.7c0.3,0.2,0.7,0.1,1.1-0.1c2.1-0.9,4.3-1.8,6.4-2.7c-1,1.5-1.8,4.1,0,4.8
	c0.8,0.3,1.6,0,2.4-0.2c3.3-1.2,6.7-2.4,10-3.6c2.1,3.4,6.2,5.3,10.2,5.6c4,0.4,8.1-0.6,11.9-1.7c-20.4,1.8-41,0.6-61.3-1.8
	c-2.5-0.3-5.1-0.6-7.6-0.2c-2.5,0.4-5,1.7-6.1,3.9c15,5.3,29.9,10.9,44.7,16.7c-2.8,2.2-6.4,3.5-9.9,4.4c-5.4,1.3-11,1.8-16.5,2
	C75.3,78,50,73.4,27,63.9"/>
</svg>
